{"asset":{"generator":"3D Builder","version":"2.0"},"scene":0,"scenes":[{"nodes":[0]}],"nodes":[{"mesh":0,"matrix":[1,0,0,0,0,-1.1920928955078125E-7,-0.99999988079071045,0,0,0.99999988079071045,-1.1920928955078125E-7,0,0,-0.03013995848596096,3.5929634822906564E-9,1]}],"meshes":[{"primitives":[{"attributes":{"POSITION":0,"COLOR_0":1},"mode":4,"indices":2}]}],"accessors":[{"bufferView":0,"byteOffset":0,"count":581,"componentType":5126,"type":"VEC3","min":[-0.15000000596046448,-0.029109766706824303,0.030139964073896408],"max":[0.15000000596046448,0.029109764844179153,0.16985997557640076]},{"bufferView":1,"byteOffset":0,"count":581,"componentType":5121,"type":"VEC4","normalized":true},{"bufferView":2,"byteOffset":0,"count":3474,"componentType":5125,"type":"SCALAR"}],"bufferViews":[{"buffer":0,"byteOffset":0,"byteLength":6972,"byteStride":12,"target":34962},{"buffer":0,"byteOffset":6972,"byteLength":2324,"byteStride":4,"target":34962},{"buffer":0,"byteOffset":9296,"byteLength":13896,"target":34963}],"buffers":[{"byteLength":23192,"uri":"pijl-rechts.bin"}]}