{"asset":{"generator":"3D Builder","version":"2.0"},"scene":0,"scenes":[{"nodes":[0]}],"nodes":[{"mesh":0,"matrix":[2.0426428318023682,0,0,0,0,-2.4350200078515627E-7,-2.0426425933837891,0,0,2.0426425933837891,-2.4350200078515627E-7,0,0,0.030140571296215057,-1.4593705799370582E-8,1]}],"meshes":[{"primitives":[{"attributes":{"POSITION":0,"TEXCOORD_0":1},"mode":4,"indices":2,"material":0}]}],"materials":[{"pbrMetallicRoughness":{"baseColorFactor":[1,1,1,1],"metallicFactor":1,"roughnessFactor":1,"baseColorTexture":{"index":0,"texCoord":0}},"alphaMode":"OPAQUE"}],"textures":[{"source":0,"sampler":0}],"images":[{"uri":"1349197049_1024x1024_2057508929258651070.png"}],"samplers":[{"magFilter":9729,"wrapS":10497,"wrapT":10497}],"accessors":[{"bufferView":0,"byteOffset":0,"count":691,"componentType":5126,"type":"VEC3","min":[-0.07343427836894989,-0.014251041226089,-2.9504121812351514E-7],"max":[0.07343427836894989,0.014251030050218105,0.068401314318180084]},{"bufferView":1,"byteOffset":0,"count":691,"componentType":5126,"type":"VEC2"},{"bufferView":2,"byteOffset":0,"count":3474,"componentType":5125,"type":"SCALAR"}],"bufferViews":[{"buffer":0,"byteOffset":0,"byteLength":8292,"byteStride":12,"target":34962},{"buffer":0,"byteOffset":8292,"byteLength":5528,"byteStride":8,"target":34962},{"buffer":0,"byteOffset":13820,"byteLength":13896,"target":34963}],"buffers":[{"byteLength":27716,"uri":"pijl-rechts.bin"}]}