{"asset":{"generator":"3D Builder","version":"2.0"},"scene":0,"scenes":[{"nodes":[0]}],"nodes":[{"mesh":0,"matrix":[1,0,0,0,0,-1.1920928955078125E-7,-0.99999988079071045,0,0,0.99999988079071045,-1.1920928955078125E-7,0,0,0,0,1]}],"meshes":[{"primitives":[{"attributes":{"POSITION":0,"TEXCOORD_0":1},"mode":4,"indices":2,"material":0}]}],"materials":[{"pbrMetallicRoughness":{"baseColorFactor":[1,1,1,1],"metallicFactor":1,"roughnessFactor":1,"baseColorTexture":{"index":0,"texCoord":0},"metallicRoughnessTexture":{"index":1,"texCoord":0}},"alphaMode":"OPAQUE"}],"textures":[{"source":0,"sampler":0},{"source":1,"sampler":0}],"images":[{"uri":"89620341_2048x2048_6195987693227547908.png"},{"uri":"1636241728_2048x2048_17319628118832143767.png"}],"samplers":[{"magFilter":9729,"wrapS":10497,"wrapT":10497}],"accessors":[{"bufferView":0,"byteOffset":0,"count":1273,"componentType":5126,"type":"VEC3","min":[-0.23731060326099396,-0.010961518622934818,0.026900580152869225],"max":[0.23726297914981842,0.010933281853795052,0.17305217683315277]},{"bufferView":1,"byteOffset":0,"count":1273,"componentType":5126,"type":"VEC2"},{"bufferView":2,"byteOffset":0,"count":6024,"componentType":5125,"type":"SCALAR"}],"bufferViews":[{"buffer":0,"byteOffset":0,"byteLength":15276,"byteStride":12,"target":34962},{"buffer":0,"byteOffset":15276,"byteLength":10184,"byteStride":8,"target":34962},{"buffer":0,"byteOffset":25460,"byteLength":24096,"target":34963}],"buffers":[{"byteLength":49556,"uri":"Red Straight arrow.bin"}]}