{"asset":{"generator":"3D Builder","version":"2.0"},"scene":0,"scenes":[{"nodes":[0]}],"nodes":[{"mesh":0,"matrix":[1.6666587591171265,0,0,0,0,-1.9868120659793931E-7,-1.6666585206985474,0,0,1.6666585206985474,-1.9868120659793931E-7,0,-1.0093004654265769E-8,5.1474565054832055E-8,-7.56975904181445E-9,1]}],"meshes":[{"primitives":[{"attributes":{"POSITION":0,"COLOR_0":1},"mode":4,"indices":2}]}],"accessors":[{"bufferView":0,"byteOffset":0,"count":581,"componentType":5126,"type":"VEC3","min":[-0.15000072121620178,-0.029109915718436241,-2.9991529260087191E-8],"max":[0.15000073611736298,0.029109904542565346,0.13971990346908569]},{"bufferView":1,"byteOffset":0,"count":581,"componentType":5121,"type":"VEC4","normalized":true},{"bufferView":2,"byteOffset":0,"count":3474,"componentType":5125,"type":"SCALAR"}],"bufferViews":[{"buffer":0,"byteOffset":0,"byteLength":6972,"byteStride":12,"target":34962},{"buffer":0,"byteOffset":6972,"byteLength":2324,"byteStride":4,"target":34962},{"buffer":0,"byteOffset":9296,"byteLength":13896,"target":34963}],"buffers":[{"byteLength":23192,"uri":"pijl-links.bin"}]}