{"asset":{"generator":"3D Builder","version":"2.0"},"scene":0,"scenes":[{"nodes":[0]}],"nodes":[{"mesh":0,"matrix":[-1.0000050067901611,-3.7060993918203167E-7,9.689333779761E-8,0,1.4533996761656454E-7,-2.5917674406628066E-7,1.0000048875808716,0,-3.7061070656818629E-7,0.99999988079071045,2.5917711354850326E-7,0,2.608102711576521E-8,6.5843343825160508E-15,-2.6421954402167103E-8,1]}],"meshes":[{"primitives":[{"attributes":{"POSITION":0,"COLOR_0":1},"mode":4,"indices":2}]}],"accessors":[{"bufferView":0,"byteOffset":0,"count":581,"componentType":5126,"type":"VEC3","min":[-0.15000000596046448,-0.029109757393598557,0],"max":[0.15000000596046448,0.029109755530953407,0.13971997797489166]},{"bufferView":1,"byteOffset":0,"count":581,"componentType":5121,"type":"VEC4","normalized":true},{"bufferView":2,"byteOffset":0,"count":3474,"componentType":5125,"type":"SCALAR"}],"bufferViews":[{"buffer":0,"byteOffset":0,"byteLength":6972,"byteStride":12,"target":34962},{"buffer":0,"byteOffset":6972,"byteLength":2324,"byteStride":4,"target":34962},{"buffer":0,"byteOffset":9296,"byteLength":13896,"target":34963}],"buffers":[{"byteLength":23192,"uri":"pijl-links.bin"}]}